<svg xmlns="http://www.w3.org/2000/svg" viewBox="0 0 512 512"><rect width="512" height="512" fill="#000000"></rect><g opacity="0.5"><g fill="none" stroke="#1b4b86" stroke-width="18" stroke-linejoin="round" stroke-linecap="round"><circle cx="256" cy="256" r="192"></circle><path d="M256 152 L346.1 204 L346.1 308 L256 360 L165.9 308 L165.9 204 Z"></path><path d="M132.6 108.9 L256 152 M321.7 75.6 L346.1 204 M445.1 222.7 L346.1 308 M379.4 403.1 L256 360 M190.3 436.4 L165.9 308 M66.9 289.3 L165.9 204"></path></g></g><path fill="#ffffff" transform="translate(34,191) scale(1.576)" d="M1 0.9 L45.4 0.9 L104.45 59.95 L153.1 59.95 L153.1 82.55 L90.05 82.55 L37 29.5 L23.5 29.5 L23.5 82.55 L1 82.55 Z M55.45 0.9 L153.1 0.9 L153.1 23.4 L77.95 23.4 Z"></path><path fill="#00f0ff" fill-rule="nonzero" transform="translate(295.6,191) scale(1.3)" d="M20 0 L134 0 L134 17 L0 17 L0 14 Z M0 14 L26 14 L26 40 L0 40 Z M0 40 L114 40 L134 54 L134 57 L20 57 L0 43 Z M108 57 L134 57 L134 83 L108 83 Z M0 83 L134 83 L134 86 L114 100 L0 100 Z"></path></svg>